<?xml version="1.0" encoding="utf-8"?>
<!-- Svg Vector Icons : http://www.onlinewebfonts.com/icon -->
<!DOCTYPE svg PUBLIC "-//W3C//DTD SVG 1.1//EN" "http://www.w3.org/Graphics/SVG/1.1/DTD/svg11.dtd">
<svg version="1.1" xmlns="http://www.w3.org/2000/svg" xmlns:xlink="http://www.w3.org/1999/xlink" x="0px" y="0px" viewBox="0 0 256 256" enable-background="new 0 0 256 256" xml:space="preserve">
<metadata> Svg Vector Icons : http://www.onlinewebfonts.com/icon </metadata>
<g> <path fill="#4ab159" d="M151.3,27.8c3.4-3.3,7.3-6.1,11.5-8.1c4.2-2,8.7-3.4,13.5-4c1.8-0.2,3.4-0.3,4.9-0.3c3.2,0,6.3,0.4,9.5,1.3 c-2.3,5.4-5.4,9-8.1,11.8c-3.5,3.4-7.4,6.1-11.5,8.1c-4.3,2-8.8,3.4-13.5,3.9c-1.8,0.2-3.4,0.3-4.9,0.3h-0.8 c4.4,1,8.7,2.4,12.9,3.9c3-0.8,5.9-1.8,8.6-3.2c4.8-2.3,9.1-5.3,13.1-9.2c3.2-3.3,7.3-8,10.1-15.4c0.4-1,0.3-2-0.1-2.9 c-0.4-0.9-1.2-1.6-2.2-2c-4.3-1.4-8.5-2.1-12.9-2.1c-1.7,0-3.5,0.1-5.5,0.3c-5.4,0.7-10.5,2.1-15.2,4.5c-4.8,2.3-9.2,5.4-13,9.2 c-3.1,3.1-6.9,7.6-9.7,14.5c1.9,0.2,3.8,0.4,5.7,0.7C145.7,33.9,148.8,30.4,151.3,27.8L151.3,27.8z"/> <path fill="#84c582" d="M157.5,40.5c4.7-0.6,9.2-1.9,13.5-3.9c4.2-2,8.1-4.7,11.5-8.1c2.7-2.8,5.8-6.3,8.1-11.8 c-3.1-0.9-6.2-1.3-9.5-1.3c-1.5,0-3.1,0.1-4.9,0.3c-4.7,0.6-9.3,1.9-13.5,4c-4.3,2.1-8.1,4.8-11.5,8.1c-2.5,2.5-5.6,6.1-7.9,11.3 c2.9,0.4,5.7,1,8.5,1.6h0.8C154.1,40.8,155.7,40.7,157.5,40.5L157.5,40.5z"/> <path fill="#ef9b51" d="M164.7,44.7c-4.2-1.6-8.5-2.9-12.9-3.9c-2.8-0.7-5.6-1.2-8.5-1.6c-1.9-0.3-3.8-0.5-5.7-0.7 c-3.2-0.3-6.4-0.4-9.6-0.4C70.7,38,24,84.7,24,142c0,57.4,46.7,104,104,104c57.4,0,104-46.7,104-104C232,97.6,204,59.6,164.7,44.7z  M128,240.5c-54.3,0-98.5-44.2-98.5-98.5c0-54.3,44.2-98.5,98.5-98.5c54.3,0,98.5,44.2,98.5,98.5 C226.5,196.3,182.3,240.5,128,240.5z"/> <path fill="#f2b379" d="M128,43.5c-54.3,0-98.5,44.2-98.5,98.5c0,54.3,44.2,98.5,98.5,98.5c54.3,0,98.5-44.2,98.5-98.5 C226.5,87.7,182.3,43.5,128,43.5z M96.6,75.3c0,1-0.5,1.9-1.4,2.4c-10.6,6.3-18.4,16.9-21,29.3c-0.3,1.3-1.4,2.2-2.7,2.2 c-1.7,0-3.1-1.6-2.7-3.3c2.9-14,11.7-25.9,23.6-33C94.2,71.8,96.6,73.1,96.6,75.3L96.6,75.3z"/> <path fill="#ffffff" d="M92.4,72.9c-12,7.1-20.7,19-23.6,33c-0.4,1.7,1,3.3,2.7,3.3c1.3,0,2.4-0.9,2.7-2.2 c2.6-12.5,10.4-23,21.1-29.3c0.9-0.5,1.4-1.4,1.4-2.4v0C96.6,73.1,94.2,71.8,92.4,72.9z"/></g>
</svg>